<?xml version="1.0" standalone="no"?><!DOCTYPE svg PUBLIC "-//W3C//DTD SVG 1.1//EN" "http://www.w3.org/Graphics/SVG/1.1/DTD/svg11.dtd"><svg t="1515120306839" class="icon" style="" viewBox="0 0 1024 1024" version="1.1" xmlns="http://www.w3.org/2000/svg" p-id="1885" xmlns:xlink="http://www.w3.org/1999/xlink" width="16" height="16"><defs><style type="text/css"></style></defs><path d="M791.480272 341.462952 623.229291 341.462952 623.229291 173.217087 230.636844 173.217087l0 673.01723 280.424784 0c0 0 4.247744 24.040533 31.28861 63.421448 27.040866 39.380916 41.494043 48.734958 41.494043 48.734958L174.558641 958.390723c-30.980595 0-56.08332-25.097608-56.08332-56.078203L118.475322 117.138884c0-30.975479 25.102724-56.089459 56.08332-56.089459l504.760109 0 224.329185 224.346581c0 0 0 262.760472 0 356.39299C854.636684 579.87897 791.480272 565.809533 791.480272 565.809533L791.480272 341.462952zM342.809623 677.977195l0-56.084343 168.250982 0 0 56.084343L342.809623 677.977195zM342.809623 285.396006l168.257122 0 0 56.066947L342.809623 341.462952 342.809623 285.396006zM679.317727 509.73133 342.809623 509.73133l0-56.100716 336.508104 0L679.317727 509.73133zM735.39593 621.892853c92.925413 0 168.250982 75.326593 168.250982 168.250982s-75.326593 168.250982-168.250982 168.250982-168.250982-75.326593-168.250982-168.250982S642.47154 621.892853 735.39593 621.892853zM707.98872 912.525116l157.311839-157.708881-41.874713-41.395806L704.012152 833.30689l-56.833403-56.833403-36.490076 38.751582L707.98872 912.525116z" p-id="1886" fill="#2c2c2c"></path></svg>